<?xml version="1.0" encoding="UTF-8"?>
<svg width="2238px" height="415px" viewBox="0 0 2238 415" version="1.1" xmlns="http://www.w3.org/2000/svg" xmlns:xlink="http://www.w3.org/1999/xlink">
    <!-- Generator: Sketch 52.6 (67491) - http://www.bohemiancoding.com/sketch -->
    <title>Group 65</title>
    <desc>Created with Sketch.</desc>
    <defs>
        <linearGradient x1="55.1574351%" y1="13.361464%" x2="50%" y2="100%" id="linearGradient-1">
            <stop stop-color="#FFFFFF" offset="0%"></stop>
            <stop stop-color="#9013FE" offset="100%"></stop>
        </linearGradient>
        <linearGradient x1="28.9599609%" y1="50%" x2="73.0712891%" y2="50%" id="linearGradient-2">
            <stop stop-color="#FFFFFF" stop-opacity="0" offset="0%"></stop>
            <stop stop-color="#FFFFFF" stop-opacity="0.192227129" offset="100%"></stop>
        </linearGradient>
    </defs>
    <g id="Presentations" stroke="none" stroke-width="1" fill="none" fill-rule="evenodd">
        <g id="Group-65">
            <g id="Group-64">
                <rect id="Rectangle" fill="#4D00B4" x="0" y="0" width="2238" height="415"></rect>
                <path d="M366.15625,390.540285 C430.299248,334.12592 483.843519,305.918737 526.789063,305.918737 C591.207378,305.918737 624.125,282.096931 643.875,247.67959 C663.625,213.262249 893.07118,-26.5587571 1015.25339,21.46875 C1096.7082,53.4870881 1135.95707,71.7857768 1133,76.3648161 C1214.6456,50.7065646 1283.31226,48.2511207 1339,68.9984844 C1394.68774,89.745848 1628.3544,204.952082 2040,414.617188 L326,414.617188 L366.15625,390.540285 Z" id="Path-30" fill="url(#linearGradient-1)"></path>
                <g id="Group-63" transform="translate(414.000000, 58.000000)">
                    <g id="Group-61" transform="translate(463.000000, 116.000000)">
                        <g id="Group-60" transform="translate(23.400000, 4.000000) scale(-1, 1) translate(-23.400000, -4.000000) translate(16.800000, 0.000000)">
                            <path d="M13.2,8 L1.40687462e-12,8 L13.2,6.31494856e-13 L13.2,8 Z" id="Combined-Shape" fill="#4D00B4"></path>
                            <path d="M13.2,7.23809524 L3.2,7.23809524 L13.2,1.14285714 L13.2,7.23809524 Z" id="Combined-Shape" fill="#9013FE"></path>
                        </g>
                        <g id="Group-60" transform="translate(0.000000, 3.047619)">
                            <path d="M8,4.95238095 L1.40687462e-12,4.95238095 L8,7.70938868e-13 L8,4.95238095 Z" id="Combined-Shape" fill="#4D00B4"></path>
                            <path d="M8,4.48072562 L1.93939394,4.48072562 L8,0.707482993 L8,4.48072562 Z" id="Combined-Shape" fill="#9013FE"></path>
                        </g>
                        <rect id="Rectangle" fill="#4D00B4" x="6" y="6.0952381" width="16.8" height="1.52380952"></rect>
                    </g>
                    <path d="M306.156246,292.15625 C297.255321,231.458333 306.231262,199.192708 333.08407,195.359375 C373.363281,189.609375 337.826087,170.035156 360.824219,170.035156 C376.156307,170.035156 436.830786,165.134115 542.847656,155.332031 L542.847656,137 L897.327031,137 C964.062135,142.140625 1004.59766,153.152344 1018.93359,170.035156 C1033.26953,186.917969 1041.69922,223.128906 1044.22266,278.667969 C1067.31641,276.019531 1081.84505,280.515625 1087.80859,292.15625 C1093.77214,303.796875 1113.46094,312.540365 1146.875,318.386719 L1146.875,329.1875 L264,329.1875 L306.156246,292.15625 Z" id="Path-20" fill="#EAE1F2"></path>
                    <polyline id="Path-29" fill="#CEC2DA" points="772.050473 137.543668 779.542587 310 872.147238 310 822.697161 137.956522"></polyline>
                    <path d="M902.413249,144.949219 C965.991087,153.071615 1001.36387,163.176432 1008.5316,175.263672 C1019.2832,193.394531 1026.33789,217 1034,280 C1036.13542,287.777442 1042.13542,291.666162 1052,291.666162 C1061.86458,291.666162 1074.00846,304.173275 1088.43164,329.1875 L921.740234,329 L953,225.607422 C953.286573,194.257074 939.392042,169.688259 911.316406,151.900978 L902.413249,144.949219 Z" id="Path-28" fill="#C7B9D4" opacity="0.790294829"></path>
                    <polygon id="Path-27" fill="#FFFFFF" opacity="0.493675595" transform="translate(800.182965, 221.783570) scale(-1, 1) rotate(5.000000) translate(-800.182965, -221.783570) " points="796 291.567141 804.365931 152 804.365931 279.567141"></polygon>
                    <path d="M523.714092,328.5194 L499,329 C505.562599,266.367941 519.700619,202.610695 541.414063,137.728261 L525.397476,307.904473 L523.714092,328.5194 Z" id="Path-26" fill="#DFD1EC"></path>
                    <polyline id="Path-25" fill="#FFFFFF" opacity="0.295898438" points="771.206813 138 780.550781 328.567141 523 328.567141 542.288369 138"></polyline>
                    <path d="M645.011592,328 C742.24256,303.03125 791.381703,280.955729 792.429022,261.773437 C794,233 888.820313,199.578125 923.910156,205 C959,210.421875 1001.04297,260 1007.45703,289 C1011.73307,308.333333 1003.2474,322.666667 982,332 L645.011592,328 Z" id="Path-24" fill="#DFD1EC"></path>
                    <path d="M772.011592,322.536251 C832.064127,307.157068 862.41382,293.559932 863.060673,281.744844 C864.030953,264.022211 922.5946,243.436433 944.267058,246.775968 C965.939516,250.115503 991.906416,280.652517 995.867918,298.514698 C998.50892,310.422818 993.267931,319.251252 980.144952,325 L772.011592,322.536251 Z" id="Path-24" fill="#FFFFFF" opacity="0.40125093"></path>
                    <g id="Group-56" transform="translate(559.000000, 0.000000)">
                        <g id="Group-55" transform="translate(0.000000, 53.543668)">
                            <rect id="Rectangle" fill="#4D00B4" x="0" y="79.5676856" width="190" height="3.88864629"></rect>
                            <rect id="Rectangle" fill="#4D00B4" x="7.79179811" y="75.6790393" width="174.716088" height="3.88864629"></rect>
                            <rect id="Rectangle" fill="#4D00B4" x="12.8864353" y="70.8930131" width="164.526814" height="3.88864629"></rect>
                            <rect id="Rectangle" fill="#4D00B4" x="17.3817035" y="13.1615721" width="154.037855" height="4.7860262"></rect>
                            <rect id="Rectangle" fill="#4D00B4" x="14.9842271" y="3.58951965" width="160.33123" height="1.19650655"></rect>
                            <rect id="Rectangle" fill="#4D00B4" x="14.384858" y="0" width="161.529968" height="2.69213974"></rect>
                            <path d="" id="Path-21" stroke="#979797" stroke-width="0.5"></path>
                            <g id="COLUMN" transform="translate(17.381703, 17.947598)">
                                <polygon id="Path-22" fill="#4D00B4" transform="translate(5.601526, 29.841680) scale(-1, 1) translate(-5.601526, -29.841680) " points="0.714092074 52.9454148 1.77293844 4.80180046 8.99521885 4.80180046 10.488959 52.9454148 8.99521885 54.8815587 1.77293844 54.8815587"></polygon>
                                <g id="Group-54" transform="translate(2.397476, 5.982533)" fill="#9013FE">
                                    <rect id="Rectangle" x="2.8665478" y="0" width="1" height="43.3733624" rx="0.5"></rect>
                                    <path d="M1.37350009,0.00329776009 C1.61093652,0.00752817779 1.80005702,0.207429588 1.79591255,0.449790056 L1.07050427,42.8702599 C1.0663598,43.1126204 0.870519793,43.3056629 0.633083366,43.3014325 C0.395646939,43.2972021 0.20652644,43.0973007 0.210670908,42.8549402 L0.936079188,0.434470358 C0.940223656,0.19210989 1.13606367,-0.000932657621 1.37350009,0.00329776009 Z" id="Rectangle"></path>
                                    <path d="M5.21955984,0.00765984885 C5.45699627,0.00342943115 5.65283628,0.196471979 5.65698075,0.438832447 L6.38238903,42.8593023 C6.3865335,43.1016628 6.197413,43.3015642 5.95997657,43.3057946 C5.72254014,43.310025 5.52670013,43.1169825 5.52255567,42.874622 L4.79714739,0.454152145 C4.79300292,0.211791676 4.98212342,0.0118902666 5.21955984,0.00765984885 Z" id="Rectangle"></path>
                                </g>
                                <rect id="Rectangle" fill="#9013FE" x="0" y="50.5524017" width="11.0883281" height="2.3930131"></rect>
                                <rect id="Rectangle" fill="#9013FE" x="0" y="0" width="11.0883281" height="2.3930131"></rect>
                                <rect id="Rectangle" fill="#4D00B4" x="0.899053628" y="2.69213974" width="9.29022082" height="1.79475983" rx="0.897379913"></rect>
                            </g>
                            <g id="COLUMN" transform="translate(326.000000, 18.000000)">
                                <polygon id="Path-22" fill="#4D00B4" transform="translate(5.601526, 29.841680) scale(-1, 1) translate(-5.601526, -29.841680) " points="0.714092074 52.9454148 1.77293844 4.80180046 8.99521885 4.80180046 10.488959 52.9454148 8.99521885 54.8815587 1.77293844 54.8815587"></polygon>
                                <g id="Group-54" transform="translate(2.397476, 5.982533)" fill="#9013FE">
                                    <rect id="Rectangle" x="2.8665478" y="0" width="1" height="43.3733624" rx="0.5"></rect>
                                    <path d="M1.37350009,0.00329776009 C1.61093652,0.00752817779 1.80005702,0.207429588 1.79591255,0.449790056 L1.07050427,42.8702599 C1.0663598,43.1126204 0.870519793,43.3056629 0.633083366,43.3014325 C0.395646939,43.2972021 0.20652644,43.0973007 0.210670908,42.8549402 L0.936079188,0.434470358 C0.940223656,0.19210989 1.13606367,-0.000932657621 1.37350009,0.00329776009 Z" id="Rectangle"></path>
                                    <path d="M5.21955984,0.00765984885 C5.45699627,0.00342943115 5.65283628,0.196471979 5.65698075,0.438832447 L6.38238903,42.8593023 C6.3865335,43.1016628 6.197413,43.3015642 5.95997657,43.3057946 C5.72254014,43.310025 5.52670013,43.1169825 5.52255567,42.874622 L4.79714739,0.454152145 C4.79300292,0.211791676 4.98212342,0.0118902666 5.21955984,0.00765984885 Z" id="Rectangle"></path>
                                </g>
                                <rect id="Rectangle" fill="#9013FE" x="0" y="50.5524017" width="11.0883281" height="2.3930131"></rect>
                                <rect id="Rectangle" fill="#9013FE" x="0" y="0" width="11.0883281" height="2.3930131"></rect>
                                <rect id="Rectangle" fill="#4D00B4" x="0.899053628" y="2.69213974" width="9.29022082" height="1.79475983" rx="0.897379913"></rect>
                            </g>
                            <g id="COLUMN" transform="translate(38.059937, 17.947598)">
                                <polygon id="Path-22" fill="#4D00B4" transform="translate(5.601526, 29.841680) scale(-1, 1) translate(-5.601526, -29.841680) " points="0.714092074 52.9454148 1.77293844 4.80180046 8.99521885 4.80180046 10.488959 52.9454148 8.99521885 54.8815587 1.77293844 54.8815587"></polygon>
                                <g id="Group-54" transform="translate(2.397476, 5.982533)" fill="#9013FE">
                                    <rect id="Rectangle" x="2.8665478" y="0" width="1" height="43.3733624" rx="0.5"></rect>
                                    <path d="M1.37350009,0.00329776009 C1.61093652,0.00752817779 1.80005702,0.207429588 1.79591255,0.449790056 L1.07050427,42.8702599 C1.0663598,43.1126204 0.870519793,43.3056629 0.633083366,43.3014325 C0.395646939,43.2972021 0.20652644,43.0973007 0.210670908,42.8549402 L0.936079188,0.434470358 C0.940223656,0.19210989 1.13606367,-0.000932657621 1.37350009,0.00329776009 Z" id="Rectangle"></path>
                                    <path d="M5.21955984,0.00765984885 C5.45699627,0.00342943115 5.65283628,0.196471979 5.65698075,0.438832447 L6.38238903,42.8593023 C6.3865335,43.1016628 6.197413,43.3015642 5.95997657,43.3057946 C5.72254014,43.310025 5.52670013,43.1169825 5.52255567,42.874622 L4.79714739,0.454152145 C4.79300292,0.211791676 4.98212342,0.0118902666 5.21955984,0.00765984885 Z" id="Rectangle"></path>
                                </g>
                                <rect id="Rectangle" fill="#9013FE" x="0" y="50.5524017" width="11.0883281" height="2.3930131"></rect>
                                <rect id="Rectangle" fill="#9013FE" x="0" y="0" width="11.0883281" height="2.3930131"></rect>
                                <rect id="Rectangle" fill="#4D00B4" x="0.899053628" y="2.69213974" width="9.29022082" height="1.79475983" rx="0.897379913"></rect>
                            </g>
                            <g id="COLUMN" transform="translate(58.438486, 17.947598)">
                                <polygon id="Path-22" fill="#4D00B4" transform="translate(5.601526, 29.841680) scale(-1, 1) translate(-5.601526, -29.841680) " points="0.714092074 52.9454148 1.77293844 4.80180046 8.99521885 4.80180046 10.488959 52.9454148 8.99521885 54.8815587 1.77293844 54.8815587"></polygon>
                                <g id="Group-54" transform="translate(2.397476, 5.982533)" fill="#9013FE">
                                    <rect id="Rectangle" x="2.8665478" y="0" width="1" height="43.3733624" rx="0.5"></rect>
                                    <path d="M1.37350009,0.00329776009 C1.61093652,0.00752817779 1.80005702,0.207429588 1.79591255,0.449790056 L1.07050427,42.8702599 C1.0663598,43.1126204 0.870519793,43.3056629 0.633083366,43.3014325 C0.395646939,43.2972021 0.20652644,43.0973007 0.210670908,42.8549402 L0.936079188,0.434470358 C0.940223656,0.19210989 1.13606367,-0.000932657621 1.37350009,0.00329776009 Z" id="Rectangle"></path>
                                    <path d="M5.21955984,0.00765984885 C5.45699627,0.00342943115 5.65283628,0.196471979 5.65698075,0.438832447 L6.38238903,42.8593023 C6.3865335,43.1016628 6.197413,43.3015642 5.95997657,43.3057946 C5.72254014,43.310025 5.52670013,43.1169825 5.52255567,42.874622 L4.79714739,0.454152145 C4.79300292,0.211791676 4.98212342,0.0118902666 5.21955984,0.00765984885 Z" id="Rectangle"></path>
                                </g>
                                <rect id="Rectangle" fill="#9013FE" x="0" y="50.5524017" width="11.0883281" height="2.3930131"></rect>
                                <rect id="Rectangle" fill="#9013FE" x="0" y="0" width="11.0883281" height="2.3930131"></rect>
                                <rect id="Rectangle" fill="#4D00B4" x="0.899053628" y="2.69213974" width="9.29022082" height="1.79475983" rx="0.897379913"></rect>
                            </g>
                            <g id="COLUMN" transform="translate(78.817035, 17.947598)">
                                <polygon id="Path-22" fill="#4D00B4" transform="translate(5.601526, 29.841680) scale(-1, 1) translate(-5.601526, -29.841680) " points="0.714092074 52.9454148 1.77293844 4.80180046 8.99521885 4.80180046 10.488959 52.9454148 8.99521885 54.8815587 1.77293844 54.8815587"></polygon>
                                <g id="Group-54" transform="translate(2.397476, 5.982533)" fill="#9013FE">
                                    <rect id="Rectangle" x="2.8665478" y="0" width="1" height="43.3733624" rx="0.5"></rect>
                                    <path d="M1.37350009,0.00329776009 C1.61093652,0.00752817779 1.80005702,0.207429588 1.79591255,0.449790056 L1.07050427,42.8702599 C1.0663598,43.1126204 0.870519793,43.3056629 0.633083366,43.3014325 C0.395646939,43.2972021 0.20652644,43.0973007 0.210670908,42.8549402 L0.936079188,0.434470358 C0.940223656,0.19210989 1.13606367,-0.000932657621 1.37350009,0.00329776009 Z" id="Rectangle"></path>
                                    <path d="M5.21955984,0.00765984885 C5.45699627,0.00342943115 5.65283628,0.196471979 5.65698075,0.438832447 L6.38238903,42.8593023 C6.3865335,43.1016628 6.197413,43.3015642 5.95997657,43.3057946 C5.72254014,43.310025 5.52670013,43.1169825 5.52255567,42.874622 L4.79714739,0.454152145 C4.79300292,0.211791676 4.98212342,0.0118902666 5.21955984,0.00765984885 Z" id="Rectangle"></path>
                                </g>
                                <rect id="Rectangle" fill="#9013FE" x="0" y="50.5524017" width="11.0883281" height="2.3930131"></rect>
                                <rect id="Rectangle" fill="#9013FE" x="0" y="0" width="11.0883281" height="2.3930131"></rect>
                                <rect id="Rectangle" fill="#4D00B4" x="0.899053628" y="2.69213974" width="9.29022082" height="1.79475983" rx="0.897379913"></rect>
                            </g>
                            <g id="COLUMN" transform="translate(99.195584, 17.947598)">
                                <polygon id="Path-22" fill="#4D00B4" transform="translate(5.601526, 29.841680) scale(-1, 1) translate(-5.601526, -29.841680) " points="0.714092074 52.9454148 1.77293844 4.80180046 8.99521885 4.80180046 10.488959 52.9454148 8.99521885 54.8815587 1.77293844 54.8815587"></polygon>
                                <g id="Group-54" transform="translate(2.397476, 5.982533)" fill="#9013FE">
                                    <rect id="Rectangle" x="2.8665478" y="0" width="1" height="43.3733624" rx="0.5"></rect>
                                    <path d="M1.37350009,0.00329776009 C1.61093652,0.00752817779 1.80005702,0.207429588 1.79591255,0.449790056 L1.07050427,42.8702599 C1.0663598,43.1126204 0.870519793,43.3056629 0.633083366,43.3014325 C0.395646939,43.2972021 0.20652644,43.0973007 0.210670908,42.8549402 L0.936079188,0.434470358 C0.940223656,0.19210989 1.13606367,-0.000932657621 1.37350009,0.00329776009 Z" id="Rectangle"></path>
                                    <path d="M5.21955984,0.00765984885 C5.45699627,0.00342943115 5.65283628,0.196471979 5.65698075,0.438832447 L6.38238903,42.8593023 C6.3865335,43.1016628 6.197413,43.3015642 5.95997657,43.3057946 C5.72254014,43.310025 5.52670013,43.1169825 5.52255567,42.874622 L4.79714739,0.454152145 C4.79300292,0.211791676 4.98212342,0.0118902666 5.21955984,0.00765984885 Z" id="Rectangle"></path>
                                </g>
                                <rect id="Rectangle" fill="#9013FE" x="0" y="50.5524017" width="11.0883281" height="2.3930131"></rect>
                                <rect id="Rectangle" fill="#9013FE" x="0" y="0" width="11.0883281" height="2.3930131"></rect>
                                <rect id="Rectangle" fill="#4D00B4" x="0.899053628" y="2.69213974" width="9.29022082" height="1.79475983" rx="0.897379913"></rect>
                            </g>
                            <g id="COLUMN" transform="translate(119.574132, 17.947598)">
                                <polygon id="Path-22" fill="#4D00B4" transform="translate(5.601526, 29.841680) scale(-1, 1) translate(-5.601526, -29.841680) " points="0.714092074 52.9454148 1.77293844 4.80180046 8.99521885 4.80180046 10.488959 52.9454148 8.99521885 54.8815587 1.77293844 54.8815587"></polygon>
                                <g id="Group-54" transform="translate(2.397476, 5.982533)" fill="#9013FE">
                                    <rect id="Rectangle" x="2.8665478" y="0" width="1" height="43.3733624" rx="0.5"></rect>
                                    <path d="M1.37350009,0.00329776009 C1.61093652,0.00752817779 1.80005702,0.207429588 1.79591255,0.449790056 L1.07050427,42.8702599 C1.0663598,43.1126204 0.870519793,43.3056629 0.633083366,43.3014325 C0.395646939,43.2972021 0.20652644,43.0973007 0.210670908,42.8549402 L0.936079188,0.434470358 C0.940223656,0.19210989 1.13606367,-0.000932657621 1.37350009,0.00329776009 Z" id="Rectangle"></path>
                                    <path d="M5.21955984,0.00765984885 C5.45699627,0.00342943115 5.65283628,0.196471979 5.65698075,0.438832447 L6.38238903,42.8593023 C6.3865335,43.1016628 6.197413,43.3015642 5.95997657,43.3057946 C5.72254014,43.310025 5.52670013,43.1169825 5.52255567,42.874622 L4.79714739,0.454152145 C4.79300292,0.211791676 4.98212342,0.0118902666 5.21955984,0.00765984885 Z" id="Rectangle"></path>
                                </g>
                                <rect id="Rectangle" fill="#9013FE" x="0" y="50.5524017" width="11.0883281" height="2.3930131"></rect>
                                <rect id="Rectangle" fill="#9013FE" x="0" y="0" width="11.0883281" height="2.3930131"></rect>
                                <rect id="Rectangle" fill="#4D00B4" x="0.899053628" y="2.69213974" width="9.29022082" height="1.79475983" rx="0.897379913"></rect>
                            </g>
                            <g id="COLUMN" transform="translate(139.952681, 17.947598)">
                                <polygon id="Path-22" fill="#4D00B4" transform="translate(5.601526, 29.841680) scale(-1, 1) translate(-5.601526, -29.841680) " points="0.714092074 52.9454148 1.77293844 4.80180046 8.99521885 4.80180046 10.488959 52.9454148 8.99521885 54.8815587 1.77293844 54.8815587"></polygon>
                                <g id="Group-54" transform="translate(2.397476, 5.982533)" fill="#9013FE">
                                    <rect id="Rectangle" x="2.8665478" y="0" width="1" height="43.3733624" rx="0.5"></rect>
                                    <path d="M1.37350009,0.00329776009 C1.61093652,0.00752817779 1.80005702,0.207429588 1.79591255,0.449790056 L1.07050427,42.8702599 C1.0663598,43.1126204 0.870519793,43.3056629 0.633083366,43.3014325 C0.395646939,43.2972021 0.20652644,43.0973007 0.210670908,42.8549402 L0.936079188,0.434470358 C0.940223656,0.19210989 1.13606367,-0.000932657621 1.37350009,0.00329776009 Z" id="Rectangle"></path>
                                    <path d="M5.21955984,0.00765984885 C5.45699627,0.00342943115 5.65283628,0.196471979 5.65698075,0.438832447 L6.38238903,42.8593023 C6.3865335,43.1016628 6.197413,43.3015642 5.95997657,43.3057946 C5.72254014,43.310025 5.52670013,43.1169825 5.52255567,42.874622 L4.79714739,0.454152145 C4.79300292,0.211791676 4.98212342,0.0118902666 5.21955984,0.00765984885 Z" id="Rectangle"></path>
                                </g>
                                <rect id="Rectangle" fill="#9013FE" x="0" y="50.5524017" width="11.0883281" height="2.3930131"></rect>
                                <rect id="Rectangle" fill="#9013FE" x="0" y="0" width="11.0883281" height="2.3930131"></rect>
                                <rect id="Rectangle" fill="#4D00B4" x="0.899053628" y="2.69213974" width="9.29022082" height="1.79475983" rx="0.897379913"></rect>
                            </g>
                            <g id="COLUMN" transform="translate(160.331230, 17.947598)">
                                <polygon id="Path-22" fill="#4D00B4" transform="translate(5.601526, 29.841680) scale(-1, 1) translate(-5.601526, -29.841680) " points="0.714092074 52.9454148 1.77293844 4.80180046 8.99521885 4.80180046 10.488959 52.9454148 8.99521885 54.8815587 1.77293844 54.8815587"></polygon>
                                <g id="Group-54" transform="translate(2.397476, 5.982533)" fill="#9013FE">
                                    <rect id="Rectangle" x="2.8665478" y="0" width="1" height="43.3733624" rx="0.5"></rect>
                                    <path d="M1.37350009,0.00329776009 C1.61093652,0.00752817779 1.80005702,0.207429588 1.79591255,0.449790056 L1.07050427,42.8702599 C1.0663598,43.1126204 0.870519793,43.3056629 0.633083366,43.3014325 C0.395646939,43.2972021 0.20652644,43.0973007 0.210670908,42.8549402 L0.936079188,0.434470358 C0.940223656,0.19210989 1.13606367,-0.000932657621 1.37350009,0.00329776009 Z" id="Rectangle"></path>
                                    <path d="M5.21955984,0.00765984885 C5.45699627,0.00342943115 5.65283628,0.196471979 5.65698075,0.438832447 L6.38238903,42.8593023 C6.3865335,43.1016628 6.197413,43.3015642 5.95997657,43.3057946 C5.72254014,43.310025 5.52670013,43.1169825 5.52255567,42.874622 L4.79714739,0.454152145 C4.79300292,0.211791676 4.98212342,0.0118902666 5.21955984,0.00765984885 Z" id="Rectangle"></path>
                                </g>
                                <rect id="Rectangle" fill="#9013FE" x="0" y="50.5524017" width="11.0883281" height="2.3930131"></rect>
                                <rect id="Rectangle" fill="#9013FE" x="0" y="0" width="11.0883281" height="2.3930131"></rect>
                                <rect id="Rectangle" fill="#4D00B4" x="0.899053628" y="2.69213974" width="9.29022082" height="1.79475983" rx="0.897379913"></rect>
                            </g>
                            <rect id="Rectangle" fill="#4D00B4" x="17.9810726" y="5.68340611" width="2.69716088" height="6.87991266"></rect>
                            <rect id="Rectangle" fill="#4D00B4" x="168.722397" y="5.68340611" width="2.69716088" height="6.87991266"></rect>
                            <rect id="Rectangle" fill="#4D00B4" x="21.8769716" y="5.68340611" width="1.19873817" height="6.87991266"></rect>
                            <rect id="Rectangle" fill="#4D00B4" x="24.2744479" y="5.68340611" width="6.89274448" height="6.87991266"></rect>
                            <rect id="Rectangle" fill="#4D00B4" x="32.3659306" y="5.68340611" width="1.19873817" height="6.87991266"></rect>
                            <rect id="Rectangle" fill="#4D00B4" x="34.7634069" y="5.68340611" width="6.89274448" height="6.87991266"></rect>
                            <rect id="Rectangle" fill="#4D00B4" x="42.8548896" y="5.68340611" width="1.19873817" height="6.87991266"></rect>
                            <rect id="Rectangle" fill="#4D00B4" x="45.2523659" y="5.68340611" width="6.89274448" height="6.87991266"></rect>
                            <rect id="Rectangle" fill="#4D00B4" x="53.3438486" y="5.68340611" width="1.19873817" height="6.87991266"></rect>
                            <rect id="Rectangle" fill="#4D00B4" x="55.7413249" y="5.68340611" width="6.89274448" height="6.87991266"></rect>
                            <rect id="Rectangle" fill="#4D00B4" x="63.8328076" y="5.68340611" width="1.19873817" height="6.87991266"></rect>
                            <rect id="Rectangle" fill="#4D00B4" x="66.2302839" y="5.68340611" width="6.89274448" height="6.87991266"></rect>
                            <rect id="Rectangle" fill="#4D00B4" x="74.3217666" y="5.68340611" width="1.19873817" height="6.87991266"></rect>
                            <rect id="Rectangle" fill="#4D00B4" x="76.7192429" y="5.68340611" width="6.89274448" height="6.87991266"></rect>
                            <rect id="Rectangle" fill="#4D00B4" x="84.8107256" y="5.68340611" width="1.19873817" height="6.87991266"></rect>
                            <rect id="Rectangle" fill="#4D00B4" x="87.2082019" y="5.68340611" width="6.89274448" height="6.87991266"></rect>
                            <rect id="Rectangle" fill="#4D00B4" x="95.2996845" y="5.68340611" width="1.19873817" height="6.87991266"></rect>
                            <rect id="Rectangle" fill="#4D00B4" x="97.6971609" y="5.68340611" width="6.89274448" height="6.87991266"></rect>
                            <rect id="Rectangle" fill="#4D00B4" x="105.788644" y="5.68340611" width="1.19873817" height="6.87991266"></rect>
                            <rect id="Rectangle" fill="#4D00B4" x="108.18612" y="5.68340611" width="6.89274448" height="6.87991266"></rect>
                            <rect id="Rectangle" fill="#4D00B4" x="116.277603" y="5.68340611" width="1.19873817" height="6.87991266"></rect>
                            <rect id="Rectangle" fill="#4D00B4" x="118.675079" y="5.68340611" width="6.89274448" height="6.87991266"></rect>
                            <rect id="Rectangle" fill="#4D00B4" x="126.766562" y="5.68340611" width="1.19873817" height="6.87991266"></rect>
                            <rect id="Rectangle" fill="#4D00B4" x="129.164038" y="5.68340611" width="6.89274448" height="6.87991266"></rect>
                            <rect id="Rectangle" fill="#4D00B4" x="137.255521" y="5.68340611" width="1.19873817" height="6.87991266"></rect>
                            <rect id="Rectangle" fill="#4D00B4" x="139.652997" y="5.68340611" width="6.89274448" height="6.87991266"></rect>
                            <rect id="Rectangle" fill="#4D00B4" x="147.744479" y="5.68340611" width="1.19873817" height="6.87991266"></rect>
                            <rect id="Rectangle" fill="#4D00B4" x="150.141956" y="5.68340611" width="6.89274448" height="6.87991266"></rect>
                            <rect id="Rectangle" fill="#4D00B4" x="158.233438" y="5.68340611" width="1.19873817" height="6.87991266"></rect>
                            <rect id="Rectangle" fill="#4D00B4" x="160.630915" y="5.68340611" width="6.89274448" height="6.87991266"></rect>
                        </g>
                        <path d="M93.9792283,1.4097508 L18.6189537,47.8567686 L169.285822,47.8567686 L93.9792283,1.4097508 Z" id="Rectangle" stroke="#4D00B4" stroke-width="2.4" fill="#9013FE"></path>
                        <path d="M93.973462,6.7950892 L34.7921272,43.369869 L153.112641,43.369869 L93.973462,6.7950892 Z" id="Rectangle" stroke="#4D00B4" stroke-width="2.4" fill="#9013FE"></path>
                        <polygon id="Rectangle" fill="#4D00B4" points="93.9671736 11.6659389 139.053628 39.4847162 48.8485804 39.4847162"></polygon>
                        <g id="Group-61" transform="translate(267.000000, 28.000000)">
                            <g id="Group-60" transform="translate(58.500000, 10.500000) scale(-1, 1) translate(-58.500000, -10.500000) translate(42.000000, 0.000000)">
                                <path d="M33,21 L1.40687462e-12,21 L33,1.24344979e-13 L33,21 Z" id="Combined-Shape" fill="#4D00B4"></path>
                                <path d="M33,19 L8,19 L33,3 L33,19 Z" id="Combined-Shape" fill="#9013FE"></path>
                            </g>
                            <g id="Group-60" transform="translate(0.000000, 8.000000)">
                                <path d="M20,13 L1.40687462e-12,13 L20,4.79616347e-13 L20,13 Z" id="Combined-Shape" fill="#4D00B4"></path>
                                <path d="M20,11.7619048 L4.84848485,11.7619048 L20,1.85714286 L20,11.7619048 Z" id="Combined-Shape" fill="#9013FE"></path>
                            </g>
                            <rect id="Rectangle" fill="#4D00B4" x="15" y="16" width="42" height="4"></rect>
                        </g>
                    </g>
                    <g id="Group-62" transform="translate(742.000000, 41.000000)" fill="#4D00B4">
                        <rect id="Rectangle" x="0" y="6" width="154" height="2"></rect>
                        <rect id="Rectangle" x="0" y="0" width="8" height="8"></rect>
                        <rect id="Rectangle" x="17" y="0" width="8" height="8"></rect>
                        <rect id="Rectangle" x="34" y="0" width="8" height="8"></rect>
                        <rect id="Rectangle" x="51" y="0" width="8" height="8"></rect>
                        <rect id="Rectangle" x="68" y="0" width="8" height="8"></rect>
                    </g>
                    <g id="Group-62" transform="translate(399.000000, 121.000000)">
                        <rect id="Rectangle" fill="#4D00B4" x="31" y="2" width="54" height="1"></rect>
                        <rect id="Rectangle" fill="#9013FE" opacity="0.238513765" x="0" y="14" width="92" height="2"></rect>
                        <rect id="Rectangle" fill="#4D00B4" x="31" y="0" width="3" height="3"></rect>
                        <rect id="Rectangle" fill="#4D00B4" x="37" y="0" width="3" height="3"></rect>
                        <rect id="Rectangle" fill="#4D00B4" x="43" y="0" width="3" height="3"></rect>
                        <rect id="Rectangle" fill="#4D00B4" x="49" y="0" width="3" height="3"></rect>
                        <rect id="Rectangle" fill="#4D00B4" x="55" y="0" width="3" height="3"></rect>
                    </g>
                    <g id="Group-56" opacity="0.802780878" transform="translate(725.000000, 53.000000)">
                        <g id="Group-55" transform="translate(0.000000, 0.543668)">
                            <rect id="Rectangle" fill="#4D00B4" x="0" y="79.5676856" width="190" height="3.88864629"></rect>
                            <rect id="Rectangle" fill="#4D00B4" x="7.79179811" y="75.6790393" width="174.716088" height="3.88864629"></rect>
                            <rect id="Rectangle" fill="#4D00B4" x="12.8864353" y="70.8930131" width="164.526814" height="3.88864629"></rect>
                            <rect id="Rectangle" fill="#4D00B4" x="17.3817035" y="13.1615721" width="154.037855" height="4.7860262"></rect>
                            <rect id="Rectangle" fill="#4D00B4" x="14.9842271" y="3.58951965" width="160.33123" height="1.19650655"></rect>
                            <rect id="Rectangle" fill="#4D00B4" x="14.384858" y="0" width="161.529968" height="2.69213974"></rect>
                            <path d="" id="Path-21" stroke="#979797" stroke-width="0.5"></path>
                            <g id="COLUMN" transform="translate(17.381703, 17.947598)">
                                <polygon id="Path-22" fill="#4D00B4" transform="translate(5.601526, 29.841680) scale(-1, 1) translate(-5.601526, -29.841680) " points="0.714092074 52.9454148 1.77293844 4.80180046 8.99521885 4.80180046 10.488959 52.9454148 8.99521885 54.8815587 1.77293844 54.8815587"></polygon>
                                <g id="Group-54" transform="translate(2.397476, 5.982533)" fill="#9013FE">
                                    <rect id="Rectangle" x="2.8665478" y="0" width="1" height="43.3733624" rx="0.5"></rect>
                                    <path d="M1.37350009,0.00329776009 C1.61093652,0.00752817779 1.80005702,0.207429588 1.79591255,0.449790056 L1.07050427,42.8702599 C1.0663598,43.1126204 0.870519793,43.3056629 0.633083366,43.3014325 C0.395646939,43.2972021 0.20652644,43.0973007 0.210670908,42.8549402 L0.936079188,0.434470358 C0.940223656,0.19210989 1.13606367,-0.000932657621 1.37350009,0.00329776009 Z" id="Rectangle"></path>
                                    <path d="M5.21955984,0.00765984885 C5.45699627,0.00342943115 5.65283628,0.196471979 5.65698075,0.438832447 L6.38238903,42.8593023 C6.3865335,43.1016628 6.197413,43.3015642 5.95997657,43.3057946 C5.72254014,43.310025 5.52670013,43.1169825 5.52255567,42.874622 L4.79714739,0.454152145 C4.79300292,0.211791676 4.98212342,0.0118902666 5.21955984,0.00765984885 Z" id="Rectangle"></path>
                                </g>
                                <rect id="Rectangle" fill="#9013FE" x="0" y="50.5524017" width="11.0883281" height="2.3930131"></rect>
                                <rect id="Rectangle" fill="#9013FE" x="0" y="0" width="11.0883281" height="2.3930131"></rect>
                                <rect id="Rectangle" fill="#4D00B4" x="0.899053628" y="2.69213974" width="9.29022082" height="1.79475983" rx="0.897379913"></rect>
                            </g>
                            <g id="COLUMN" transform="translate(38.059937, 17.947598)">
                                <polygon id="Path-22" fill="#4D00B4" transform="translate(5.601526, 29.841680) scale(-1, 1) translate(-5.601526, -29.841680) " points="0.714092074 52.9454148 1.77293844 4.80180046 8.99521885 4.80180046 10.488959 52.9454148 8.99521885 54.8815587 1.77293844 54.8815587"></polygon>
                                <g id="Group-54" transform="translate(2.397476, 5.982533)" fill="#9013FE">
                                    <rect id="Rectangle" x="2.8665478" y="0" width="1" height="43.3733624" rx="0.5"></rect>
                                    <path d="M1.37350009,0.00329776009 C1.61093652,0.00752817779 1.80005702,0.207429588 1.79591255,0.449790056 L1.07050427,42.8702599 C1.0663598,43.1126204 0.870519793,43.3056629 0.633083366,43.3014325 C0.395646939,43.2972021 0.20652644,43.0973007 0.210670908,42.8549402 L0.936079188,0.434470358 C0.940223656,0.19210989 1.13606367,-0.000932657621 1.37350009,0.00329776009 Z" id="Rectangle"></path>
                                    <path d="M5.21955984,0.00765984885 C5.45699627,0.00342943115 5.65283628,0.196471979 5.65698075,0.438832447 L6.38238903,42.8593023 C6.3865335,43.1016628 6.197413,43.3015642 5.95997657,43.3057946 C5.72254014,43.310025 5.52670013,43.1169825 5.52255567,42.874622 L4.79714739,0.454152145 C4.79300292,0.211791676 4.98212342,0.0118902666 5.21955984,0.00765984885 Z" id="Rectangle"></path>
                                </g>
                                <rect id="Rectangle" fill="#9013FE" x="0" y="50.5524017" width="11.0883281" height="2.3930131"></rect>
                                <rect id="Rectangle" fill="#9013FE" x="0" y="0" width="11.0883281" height="2.3930131"></rect>
                                <rect id="Rectangle" fill="#4D00B4" x="0.899053628" y="2.69213974" width="9.29022082" height="1.79475983" rx="0.897379913"></rect>
                            </g>
                            <g id="COLUMN" transform="translate(58.438486, 17.947598)">
                                <polygon id="Path-22" fill="#4D00B4" transform="translate(5.601526, 29.841680) scale(-1, 1) translate(-5.601526, -29.841680) " points="0.714092074 52.9454148 1.77293844 4.80180046 8.99521885 4.80180046 10.488959 52.9454148 8.99521885 54.8815587 1.77293844 54.8815587"></polygon>
                                <g id="Group-54" transform="translate(2.397476, 5.982533)" fill="#9013FE">
                                    <rect id="Rectangle" x="2.8665478" y="0" width="1" height="43.3733624" rx="0.5"></rect>
                                    <path d="M1.37350009,0.00329776009 C1.61093652,0.00752817779 1.80005702,0.207429588 1.79591255,0.449790056 L1.07050427,42.8702599 C1.0663598,43.1126204 0.870519793,43.3056629 0.633083366,43.3014325 C0.395646939,43.2972021 0.20652644,43.0973007 0.210670908,42.8549402 L0.936079188,0.434470358 C0.940223656,0.19210989 1.13606367,-0.000932657621 1.37350009,0.00329776009 Z" id="Rectangle"></path>
                                    <path d="M5.21955984,0.00765984885 C5.45699627,0.00342943115 5.65283628,0.196471979 5.65698075,0.438832447 L6.38238903,42.8593023 C6.3865335,43.1016628 6.197413,43.3015642 5.95997657,43.3057946 C5.72254014,43.310025 5.52670013,43.1169825 5.52255567,42.874622 L4.79714739,0.454152145 C4.79300292,0.211791676 4.98212342,0.0118902666 5.21955984,0.00765984885 Z" id="Rectangle"></path>
                                </g>
                                <rect id="Rectangle" fill="#9013FE" x="0" y="50.5524017" width="11.0883281" height="2.3930131"></rect>
                                <rect id="Rectangle" fill="#9013FE" x="0" y="0" width="11.0883281" height="2.3930131"></rect>
                                <rect id="Rectangle" fill="#4D00B4" x="0.899053628" y="2.69213974" width="9.29022082" height="1.79475983" rx="0.897379913"></rect>
                            </g>
                            <g id="COLUMN" transform="translate(78.817035, 17.947598)">
                                <polygon id="Path-22" fill="#4D00B4" transform="translate(5.601526, 29.841680) scale(-1, 1) translate(-5.601526, -29.841680) " points="0.714092074 52.9454148 1.77293844 4.80180046 8.99521885 4.80180046 10.488959 52.9454148 8.99521885 54.8815587 1.77293844 54.8815587"></polygon>
                                <g id="Group-54" transform="translate(2.397476, 5.982533)" fill="#9013FE">
                                    <rect id="Rectangle" x="2.8665478" y="0" width="1" height="43.3733624" rx="0.5"></rect>
                                    <path d="M1.37350009,0.00329776009 C1.61093652,0.00752817779 1.80005702,0.207429588 1.79591255,0.449790056 L1.07050427,42.8702599 C1.0663598,43.1126204 0.870519793,43.3056629 0.633083366,43.3014325 C0.395646939,43.2972021 0.20652644,43.0973007 0.210670908,42.8549402 L0.936079188,0.434470358 C0.940223656,0.19210989 1.13606367,-0.000932657621 1.37350009,0.00329776009 Z" id="Rectangle"></path>
                                    <path d="M5.21955984,0.00765984885 C5.45699627,0.00342943115 5.65283628,0.196471979 5.65698075,0.438832447 L6.38238903,42.8593023 C6.3865335,43.1016628 6.197413,43.3015642 5.95997657,43.3057946 C5.72254014,43.310025 5.52670013,43.1169825 5.52255567,42.874622 L4.79714739,0.454152145 C4.79300292,0.211791676 4.98212342,0.0118902666 5.21955984,0.00765984885 Z" id="Rectangle"></path>
                                </g>
                                <rect id="Rectangle" fill="#9013FE" x="0" y="50.5524017" width="11.0883281" height="2.3930131"></rect>
                                <rect id="Rectangle" fill="#9013FE" x="0" y="0" width="11.0883281" height="2.3930131"></rect>
                                <rect id="Rectangle" fill="#4D00B4" x="0.899053628" y="2.69213974" width="9.29022082" height="1.79475983" rx="0.897379913"></rect>
                            </g>
                            <g id="COLUMN" transform="translate(99.195584, 17.947598)">
                                <polygon id="Path-22" fill="#4D00B4" transform="translate(5.601526, 29.841680) scale(-1, 1) translate(-5.601526, -29.841680) " points="0.714092074 52.9454148 1.77293844 4.80180046 8.99521885 4.80180046 10.488959 52.9454148 8.99521885 54.8815587 1.77293844 54.8815587"></polygon>
                                <g id="Group-54" transform="translate(2.397476, 5.982533)" fill="#9013FE">
                                    <rect id="Rectangle" x="2.8665478" y="0" width="1" height="43.3733624" rx="0.5"></rect>
                                    <path d="M1.37350009,0.00329776009 C1.61093652,0.00752817779 1.80005702,0.207429588 1.79591255,0.449790056 L1.07050427,42.8702599 C1.0663598,43.1126204 0.870519793,43.3056629 0.633083366,43.3014325 C0.395646939,43.2972021 0.20652644,43.0973007 0.210670908,42.8549402 L0.936079188,0.434470358 C0.940223656,0.19210989 1.13606367,-0.000932657621 1.37350009,0.00329776009 Z" id="Rectangle"></path>
                                    <path d="M5.21955984,0.00765984885 C5.45699627,0.00342943115 5.65283628,0.196471979 5.65698075,0.438832447 L6.38238903,42.8593023 C6.3865335,43.1016628 6.197413,43.3015642 5.95997657,43.3057946 C5.72254014,43.310025 5.52670013,43.1169825 5.52255567,42.874622 L4.79714739,0.454152145 C4.79300292,0.211791676 4.98212342,0.0118902666 5.21955984,0.00765984885 Z" id="Rectangle"></path>
                                </g>
                                <rect id="Rectangle" fill="#9013FE" x="0" y="50.5524017" width="11.0883281" height="2.3930131"></rect>
                                <rect id="Rectangle" fill="#9013FE" x="0" y="0" width="11.0883281" height="2.3930131"></rect>
                                <rect id="Rectangle" fill="#4D00B4" x="0.899053628" y="2.69213974" width="9.29022082" height="1.79475983" rx="0.897379913"></rect>
                            </g>
                            <g id="COLUMN" transform="translate(119.574132, 17.947598)">
                                <polygon id="Path-22" fill="#4D00B4" transform="translate(5.601526, 29.841680) scale(-1, 1) translate(-5.601526, -29.841680) " points="0.714092074 52.9454148 1.77293844 4.80180046 8.99521885 4.80180046 10.488959 52.9454148 8.99521885 54.8815587 1.77293844 54.8815587"></polygon>
                                <g id="Group-54" transform="translate(2.397476, 5.982533)" fill="#9013FE">
                                    <rect id="Rectangle" x="2.8665478" y="0" width="1" height="43.3733624" rx="0.5"></rect>
                                    <path d="M1.37350009,0.00329776009 C1.61093652,0.00752817779 1.80005702,0.207429588 1.79591255,0.449790056 L1.07050427,42.8702599 C1.0663598,43.1126204 0.870519793,43.3056629 0.633083366,43.3014325 C0.395646939,43.2972021 0.20652644,43.0973007 0.210670908,42.8549402 L0.936079188,0.434470358 C0.940223656,0.19210989 1.13606367,-0.000932657621 1.37350009,0.00329776009 Z" id="Rectangle"></path>
                                    <path d="M5.21955984,0.00765984885 C5.45699627,0.00342943115 5.65283628,0.196471979 5.65698075,0.438832447 L6.38238903,42.8593023 C6.3865335,43.1016628 6.197413,43.3015642 5.95997657,43.3057946 C5.72254014,43.310025 5.52670013,43.1169825 5.52255567,42.874622 L4.79714739,0.454152145 C4.79300292,0.211791676 4.98212342,0.0118902666 5.21955984,0.00765984885 Z" id="Rectangle"></path>
                                </g>
                                <rect id="Rectangle" fill="#9013FE" x="0" y="50.5524017" width="11.0883281" height="2.3930131"></rect>
                                <rect id="Rectangle" fill="#9013FE" x="0" y="0" width="11.0883281" height="2.3930131"></rect>
                                <rect id="Rectangle" fill="#4D00B4" x="0.899053628" y="2.69213974" width="9.29022082" height="1.79475983" rx="0.897379913"></rect>
                            </g>
                            <g id="COLUMN" transform="translate(139.952681, 17.947598)">
                                <polygon id="Path-22" fill="#4D00B4" transform="translate(5.601526, 29.841680) scale(-1, 1) translate(-5.601526, -29.841680) " points="0.714092074 52.9454148 1.77293844 4.80180046 8.99521885 4.80180046 10.488959 52.9454148 8.99521885 54.8815587 1.77293844 54.8815587"></polygon>
                                <g id="Group-54" transform="translate(2.397476, 5.982533)" fill="#9013FE">
                                    <rect id="Rectangle" x="2.8665478" y="0" width="1" height="43.3733624" rx="0.5"></rect>
                                    <path d="M1.37350009,0.00329776009 C1.61093652,0.00752817779 1.80005702,0.207429588 1.79591255,0.449790056 L1.07050427,42.8702599 C1.0663598,43.1126204 0.870519793,43.3056629 0.633083366,43.3014325 C0.395646939,43.2972021 0.20652644,43.0973007 0.210670908,42.8549402 L0.936079188,0.434470358 C0.940223656,0.19210989 1.13606367,-0.000932657621 1.37350009,0.00329776009 Z" id="Rectangle"></path>
                                    <path d="M5.21955984,0.00765984885 C5.45699627,0.00342943115 5.65283628,0.196471979 5.65698075,0.438832447 L6.38238903,42.8593023 C6.3865335,43.1016628 6.197413,43.3015642 5.95997657,43.3057946 C5.72254014,43.310025 5.52670013,43.1169825 5.52255567,42.874622 L4.79714739,0.454152145 C4.79300292,0.211791676 4.98212342,0.0118902666 5.21955984,0.00765984885 Z" id="Rectangle"></path>
                                </g>
                                <rect id="Rectangle" fill="#9013FE" x="0" y="50.5524017" width="11.0883281" height="2.3930131"></rect>
                                <rect id="Rectangle" fill="#9013FE" x="0" y="0" width="11.0883281" height="2.3930131"></rect>
                                <rect id="Rectangle" fill="#4D00B4" x="0.899053628" y="2.69213974" width="9.29022082" height="1.79475983" rx="0.897379913"></rect>
                            </g>
                            <g id="COLUMN" transform="translate(160.331230, 17.947598)">
                                <polygon id="Path-22" fill="#4D00B4" transform="translate(5.601526, 29.841680) scale(-1, 1) translate(-5.601526, -29.841680) " points="0.714092074 52.9454148 1.77293844 4.80180046 8.99521885 4.80180046 10.488959 52.9454148 8.99521885 54.8815587 1.77293844 54.8815587"></polygon>
                                <g id="Group-54" transform="translate(2.397476, 5.982533)" fill="#9013FE">
                                    <rect id="Rectangle" x="2.8665478" y="0" width="1" height="43.3733624" rx="0.5"></rect>
                                    <path d="M1.37350009,0.00329776009 C1.61093652,0.00752817779 1.80005702,0.207429588 1.79591255,0.449790056 L1.07050427,42.8702599 C1.0663598,43.1126204 0.870519793,43.3056629 0.633083366,43.3014325 C0.395646939,43.2972021 0.20652644,43.0973007 0.210670908,42.8549402 L0.936079188,0.434470358 C0.940223656,0.19210989 1.13606367,-0.000932657621 1.37350009,0.00329776009 Z" id="Rectangle"></path>
                                    <path d="M5.21955984,0.00765984885 C5.45699627,0.00342943115 5.65283628,0.196471979 5.65698075,0.438832447 L6.38238903,42.8593023 C6.3865335,43.1016628 6.197413,43.3015642 5.95997657,43.3057946 C5.72254014,43.310025 5.52670013,43.1169825 5.52255567,42.874622 L4.79714739,0.454152145 C4.79300292,0.211791676 4.98212342,0.0118902666 5.21955984,0.00765984885 Z" id="Rectangle"></path>
                                </g>
                                <rect id="Rectangle" fill="#9013FE" x="0" y="50.5524017" width="11.0883281" height="2.3930131"></rect>
                                <rect id="Rectangle" fill="#9013FE" x="0" y="0" width="11.0883281" height="2.3930131"></rect>
                                <rect id="Rectangle" fill="#4D00B4" x="0.899053628" y="2.69213974" width="9.29022082" height="1.79475983" rx="0.897379913"></rect>
                            </g>
                            <rect id="Rectangle" fill="#4D00B4" x="17.9810726" y="5.68340611" width="2.69716088" height="6.87991266"></rect>
                            <rect id="Rectangle" fill="#4D00B4" x="168.722397" y="5.68340611" width="2.69716088" height="6.87991266"></rect>
                            <rect id="Rectangle" fill="#4D00B4" x="21.8769716" y="5.68340611" width="1.19873817" height="6.87991266"></rect>
                            <rect id="Rectangle" fill="#4D00B4" x="24.2744479" y="5.68340611" width="6.89274448" height="6.87991266"></rect>
                            <rect id="Rectangle" fill="#4D00B4" x="32.3659306" y="5.68340611" width="1.19873817" height="6.87991266"></rect>
                            <rect id="Rectangle" fill="#4D00B4" x="34.7634069" y="5.68340611" width="6.89274448" height="6.87991266"></rect>
                            <rect id="Rectangle" fill="#4D00B4" x="42.8548896" y="5.68340611" width="1.19873817" height="6.87991266"></rect>
                            <rect id="Rectangle" fill="#4D00B4" x="45.2523659" y="5.68340611" width="6.89274448" height="6.87991266"></rect>
                            <rect id="Rectangle" fill="#4D00B4" x="53.3438486" y="5.68340611" width="1.19873817" height="6.87991266"></rect>
                            <rect id="Rectangle" fill="#4D00B4" x="55.7413249" y="5.68340611" width="6.89274448" height="6.87991266"></rect>
                            <rect id="Rectangle" fill="#4D00B4" x="63.8328076" y="5.68340611" width="1.19873817" height="6.87991266"></rect>
                            <rect id="Rectangle" fill="#4D00B4" x="66.2302839" y="5.68340611" width="6.89274448" height="6.87991266"></rect>
                            <rect id="Rectangle" fill="#4D00B4" x="74.3217666" y="5.68340611" width="1.19873817" height="6.87991266"></rect>
                            <rect id="Rectangle" fill="#4D00B4" x="76.7192429" y="5.68340611" width="6.89274448" height="6.87991266"></rect>
                            <rect id="Rectangle" fill="#4D00B4" x="84.8107256" y="5.68340611" width="1.19873817" height="6.87991266"></rect>
                            <rect id="Rectangle" fill="#4D00B4" x="87.2082019" y="5.68340611" width="6.89274448" height="6.87991266"></rect>
                            <rect id="Rectangle" fill="#4D00B4" x="95.2996845" y="5.68340611" width="1.19873817" height="6.87991266"></rect>
                            <rect id="Rectangle" fill="#4D00B4" x="97.6971609" y="5.68340611" width="6.89274448" height="6.87991266"></rect>
                            <rect id="Rectangle" fill="#4D00B4" x="105.788644" y="5.68340611" width="1.19873817" height="6.87991266"></rect>
                            <rect id="Rectangle" fill="#4D00B4" x="108.18612" y="5.68340611" width="6.89274448" height="6.87991266"></rect>
                            <rect id="Rectangle" fill="#4D00B4" x="116.277603" y="5.68340611" width="1.19873817" height="6.87991266"></rect>
                            <rect id="Rectangle" fill="#4D00B4" x="118.675079" y="5.68340611" width="6.89274448" height="6.87991266"></rect>
                            <rect id="Rectangle" fill="#4D00B4" x="126.766562" y="5.68340611" width="1.19873817" height="6.87991266"></rect>
                            <rect id="Rectangle" fill="#4D00B4" x="129.164038" y="5.68340611" width="6.89274448" height="6.87991266"></rect>
                            <rect id="Rectangle" fill="#4D00B4" x="137.255521" y="5.68340611" width="1.19873817" height="6.87991266"></rect>
                            <rect id="Rectangle" fill="#4D00B4" x="139.652997" y="5.68340611" width="6.89274448" height="6.87991266"></rect>
                            <rect id="Rectangle" fill="#4D00B4" x="147.744479" y="5.68340611" width="1.19873817" height="6.87991266"></rect>
                            <rect id="Rectangle" fill="#4D00B4" x="150.141956" y="5.68340611" width="6.89274448" height="6.87991266"></rect>
                            <rect id="Rectangle" fill="#4D00B4" x="158.233438" y="5.68340611" width="1.19873817" height="6.87991266"></rect>
                            <rect id="Rectangle" fill="#4D00B4" x="160.630915" y="5.68340611" width="6.89274448" height="6.87991266"></rect>
                        </g>
                    </g>
                    <g id="Group-56" opacity="0.802780878" transform="translate(423.000000, 125.000000)">
                        <g id="Group-55" transform="translate(0.000000, 0.220056)">
                            <rect id="Rectangle" fill="#4D00B4" x="0" y="32.205968" width="76" height="1.57397588"></rect>
                            <rect id="Rectangle" fill="#4D00B4" x="3.11671924" y="30.6319921" width="69.8864353" height="1.57397588"></rect>
                            <rect id="Rectangle" fill="#4D00B4" x="5.15457413" y="28.694791" width="65.8107256" height="1.57397588"></rect>
                            <rect id="Rectangle" fill="#4D00B4" x="6.95268139" y="5.32730297" width="61.615142" height="1.93720108"></rect>
                            <rect id="Rectangle" fill="#4D00B4" x="5.99369085" y="1.45290081" width="64.1324921" height="1"></rect>
                            <rect id="Rectangle" fill="#4D00B4" x="5.75394322" y="0" width="64.6119874" height="1.08967561"></rect>
                            <path d="" id="Path-21" stroke="#979797" stroke-width="0.5"></path>
                            <g id="COLUMN" transform="translate(6.952681, 7.264504)">
                                <polygon id="Path-22" fill="#4D00B4" transform="translate(2.240610, 12.078775) scale(-1, 1) translate(-2.240610, -12.078775) " points="0.28563683 21.430287 0.709175375 1.9435859 3.59808754 1.9435859 4.1955836 21.430287 3.59808754 22.2139643 0.709175375 22.2139643"></polygon>
                                <g id="Group-54" transform="translate(0.958991, 2.421501)" fill="#9013FE">
                                    <rect id="Rectangle" x="1.14661912" y="0" width="1" height="17.5558848" rx="0.3"></rect>
                                    <path d="M0.549400037,0.00133480765 C0.644374608,0.00304711958 0.720022808,0.083959595 0.71836502,0.18205788 L0.428201708,17.3522481 C0.426543921,17.4503463 0.348207917,17.5284826 0.253233346,17.5267703 C0.158258776,17.525058 0.0826105759,17.4441455 0.0842683632,17.3460472 L0.374431675,0.17585705 C0.376089463,0.077758765 0.454425467,-0.000377504275 0.549400037,0.00133480765 Z" id="Rectangle"></path>
                                    <path d="M2.08782394,0.00310041501 C2.18279851,0.00138810308 2.26113451,0.0795243724 2.2627923,0.177622657 L2.55295561,17.3478128 C2.5546134,17.4459111 2.4789652,17.5268236 2.38399063,17.5285359 C2.28901606,17.5302482 2.21068005,17.452112 2.20902227,17.3540137 L1.91885895,0.183823487 C1.91720117,0.0857252024 1.99284937,0.00481272694 2.08782394,0.00310041501 Z" id="Rectangle"></path>
                                </g>
                                <rect id="Rectangle" fill="#9013FE" x="0" y="20.4616864" width="4.43533123" height="1"></rect>
                                <rect id="Rectangle" fill="#9013FE" x="0" y="0" width="4.43533123" height="1"></rect>
                                <rect id="Rectangle" fill="#4D00B4" x="0.359621451" y="1.08967561" width="3.71608833" height="1" rx="0.36"></rect>
                            </g>
                            <g id="COLUMN" transform="translate(15.223975, 7.264504)">
                                <polygon id="Path-22" fill="#4D00B4" transform="translate(2.240610, 12.078775) scale(-1, 1) translate(-2.240610, -12.078775) " points="0.28563683 21.430287 0.709175375 1.9435859 3.59808754 1.9435859 4.1955836 21.430287 3.59808754 22.2139643 0.709175375 22.2139643"></polygon>
                                <g id="Group-54" transform="translate(0.958991, 2.421501)" fill="#9013FE">
                                    <rect id="Rectangle" x="1.14661912" y="0" width="1" height="17.5558848" rx="0.3"></rect>
                                    <path d="M0.549400037,0.00133480765 C0.644374608,0.00304711958 0.720022808,0.083959595 0.71836502,0.18205788 L0.428201708,17.3522481 C0.426543921,17.4503463 0.348207917,17.5284826 0.253233346,17.5267703 C0.158258776,17.525058 0.0826105759,17.4441455 0.0842683632,17.3460472 L0.374431675,0.17585705 C0.376089463,0.077758765 0.454425467,-0.000377504275 0.549400037,0.00133480765 Z" id="Rectangle"></path>
                                    <path d="M2.08782394,0.00310041501 C2.18279851,0.00138810308 2.26113451,0.0795243724 2.2627923,0.177622657 L2.55295561,17.3478128 C2.5546134,17.4459111 2.4789652,17.5268236 2.38399063,17.5285359 C2.28901606,17.5302482 2.21068005,17.452112 2.20902227,17.3540137 L1.91885895,0.183823487 C1.91720117,0.0857252024 1.99284937,0.00481272694 2.08782394,0.00310041501 Z" id="Rectangle"></path>
                                </g>
                                <rect id="Rectangle" fill="#9013FE" x="0" y="20.4616864" width="4.43533123" height="1"></rect>
                                <rect id="Rectangle" fill="#9013FE" x="0" y="0" width="4.43533123" height="1"></rect>
                                <rect id="Rectangle" fill="#4D00B4" x="0.359621451" y="1.08967561" width="3.71608833" height="1" rx="0.36"></rect>
                            </g>
                            <g id="COLUMN" transform="translate(23.375394, 7.264504)">
                                <polygon id="Path-22" fill="#4D00B4" transform="translate(2.240610, 12.078775) scale(-1, 1) translate(-2.240610, -12.078775) " points="0.28563683 21.430287 0.709175375 1.9435859 3.59808754 1.9435859 4.1955836 21.430287 3.59808754 22.2139643 0.709175375 22.2139643"></polygon>
                                <g id="Group-54" transform="translate(0.958991, 2.421501)" fill="#9013FE">
                                    <rect id="Rectangle" x="1.14661912" y="0" width="1" height="17.5558848" rx="0.3"></rect>
                                    <path d="M0.549400037,0.00133480765 C0.644374608,0.00304711958 0.720022808,0.083959595 0.71836502,0.18205788 L0.428201708,17.3522481 C0.426543921,17.4503463 0.348207917,17.5284826 0.253233346,17.5267703 C0.158258776,17.525058 0.0826105759,17.4441455 0.0842683632,17.3460472 L0.374431675,0.17585705 C0.376089463,0.077758765 0.454425467,-0.000377504275 0.549400037,0.00133480765 Z" id="Rectangle"></path>
                                    <path d="M2.08782394,0.00310041501 C2.18279851,0.00138810308 2.26113451,0.0795243724 2.2627923,0.177622657 L2.55295561,17.3478128 C2.5546134,17.4459111 2.4789652,17.5268236 2.38399063,17.5285359 C2.28901606,17.5302482 2.21068005,17.452112 2.20902227,17.3540137 L1.91885895,0.183823487 C1.91720117,0.0857252024 1.99284937,0.00481272694 2.08782394,0.00310041501 Z" id="Rectangle"></path>
                                </g>
                                <rect id="Rectangle" fill="#9013FE" x="0" y="20.4616864" width="4.43533123" height="1"></rect>
                                <rect id="Rectangle" fill="#9013FE" x="0" y="0" width="4.43533123" height="1"></rect>
                                <rect id="Rectangle" fill="#4D00B4" x="0.359621451" y="1.08967561" width="3.71608833" height="1" rx="0.36"></rect>
                            </g>
                            <g id="COLUMN" transform="translate(31.526814, 7.264504)">
                                <polygon id="Path-22" fill="#4D00B4" transform="translate(2.240610, 12.078775) scale(-1, 1) translate(-2.240610, -12.078775) " points="0.28563683 21.430287 0.709175375 1.9435859 3.59808754 1.9435859 4.1955836 21.430287 3.59808754 22.2139643 0.709175375 22.2139643"></polygon>
                                <g id="Group-54" transform="translate(0.958991, 2.421501)" fill="#9013FE">
                                    <rect id="Rectangle" x="1.14661912" y="0" width="1" height="17.5558848" rx="0.3"></rect>
                                    <path d="M0.549400037,0.00133480765 C0.644374608,0.00304711958 0.720022808,0.083959595 0.71836502,0.18205788 L0.428201708,17.3522481 C0.426543921,17.4503463 0.348207917,17.5284826 0.253233346,17.5267703 C0.158258776,17.525058 0.0826105759,17.4441455 0.0842683632,17.3460472 L0.374431675,0.17585705 C0.376089463,0.077758765 0.454425467,-0.000377504275 0.549400037,0.00133480765 Z" id="Rectangle"></path>
                                    <path d="M2.08782394,0.00310041501 C2.18279851,0.00138810308 2.26113451,0.0795243724 2.2627923,0.177622657 L2.55295561,17.3478128 C2.5546134,17.4459111 2.4789652,17.5268236 2.38399063,17.5285359 C2.28901606,17.5302482 2.21068005,17.452112 2.20902227,17.3540137 L1.91885895,0.183823487 C1.91720117,0.0857252024 1.99284937,0.00481272694 2.08782394,0.00310041501 Z" id="Rectangle"></path>
                                </g>
                                <rect id="Rectangle" fill="#9013FE" x="0" y="20.4616864" width="4.43533123" height="1"></rect>
                                <rect id="Rectangle" fill="#9013FE" x="0" y="0" width="4.43533123" height="1"></rect>
                                <rect id="Rectangle" fill="#4D00B4" x="0.359621451" y="1.08967561" width="3.71608833" height="1" rx="0.36"></rect>
                            </g>
                            <g id="COLUMN" transform="translate(39.678233, 7.264504)">
                                <polygon id="Path-22" fill="#4D00B4" transform="translate(2.240610, 12.078775) scale(-1, 1) translate(-2.240610, -12.078775) " points="0.28563683 21.430287 0.709175375 1.9435859 3.59808754 1.9435859 4.1955836 21.430287 3.59808754 22.2139643 0.709175375 22.2139643"></polygon>
                                <g id="Group-54" transform="translate(0.958991, 2.421501)" fill="#9013FE">
                                    <rect id="Rectangle" x="1.14661912" y="0" width="1" height="17.5558848" rx="0.3"></rect>
                                    <path d="M0.549400037,0.00133480765 C0.644374608,0.00304711958 0.720022808,0.083959595 0.71836502,0.18205788 L0.428201708,17.3522481 C0.426543921,17.4503463 0.348207917,17.5284826 0.253233346,17.5267703 C0.158258776,17.525058 0.0826105759,17.4441455 0.0842683632,17.3460472 L0.374431675,0.17585705 C0.376089463,0.077758765 0.454425467,-0.000377504275 0.549400037,0.00133480765 Z" id="Rectangle"></path>
                                    <path d="M2.08782394,0.00310041501 C2.18279851,0.00138810308 2.26113451,0.0795243724 2.2627923,0.177622657 L2.55295561,17.3478128 C2.5546134,17.4459111 2.4789652,17.5268236 2.38399063,17.5285359 C2.28901606,17.5302482 2.21068005,17.452112 2.20902227,17.3540137 L1.91885895,0.183823487 C1.91720117,0.0857252024 1.99284937,0.00481272694 2.08782394,0.00310041501 Z" id="Rectangle"></path>
                                </g>
                                <rect id="Rectangle" fill="#9013FE" x="0" y="20.4616864" width="4.43533123" height="1"></rect>
                                <rect id="Rectangle" fill="#9013FE" x="0" y="0" width="4.43533123" height="1"></rect>
                                <rect id="Rectangle" fill="#4D00B4" x="0.359621451" y="1.08967561" width="3.71608833" height="1" rx="0.36"></rect>
                            </g>
                            <g id="COLUMN" transform="translate(47.829653, 7.264504)">
                                <polygon id="Path-22" fill="#4D00B4" transform="translate(2.240610, 12.078775) scale(-1, 1) translate(-2.240610, -12.078775) " points="0.28563683 21.430287 0.709175375 1.9435859 3.59808754 1.9435859 4.1955836 21.430287 3.59808754 22.2139643 0.709175375 22.2139643"></polygon>
                                <g id="Group-54" transform="translate(0.958991, 2.421501)" fill="#9013FE">
                                    <rect id="Rectangle" x="1.14661912" y="0" width="1" height="17.5558848" rx="0.3"></rect>
                                    <path d="M0.549400037,0.00133480765 C0.644374608,0.00304711958 0.720022808,0.083959595 0.71836502,0.18205788 L0.428201708,17.3522481 C0.426543921,17.4503463 0.348207917,17.5284826 0.253233346,17.5267703 C0.158258776,17.525058 0.0826105759,17.4441455 0.0842683632,17.3460472 L0.374431675,0.17585705 C0.376089463,0.077758765 0.454425467,-0.000377504275 0.549400037,0.00133480765 Z" id="Rectangle"></path>
                                    <path d="M2.08782394,0.00310041501 C2.18279851,0.00138810308 2.26113451,0.0795243724 2.2627923,0.177622657 L2.55295561,17.3478128 C2.5546134,17.4459111 2.4789652,17.5268236 2.38399063,17.5285359 C2.28901606,17.5302482 2.21068005,17.452112 2.20902227,17.3540137 L1.91885895,0.183823487 C1.91720117,0.0857252024 1.99284937,0.00481272694 2.08782394,0.00310041501 Z" id="Rectangle"></path>
                                </g>
                                <rect id="Rectangle" fill="#9013FE" x="0" y="20.4616864" width="4.43533123" height="1"></rect>
                                <rect id="Rectangle" fill="#9013FE" x="0" y="0" width="4.43533123" height="1"></rect>
                                <rect id="Rectangle" fill="#4D00B4" x="0.359621451" y="1.08967561" width="3.71608833" height="1" rx="0.36"></rect>
                            </g>
                            <g id="COLUMN" transform="translate(55.981073, 7.264504)">
                                <polygon id="Path-22" fill="#4D00B4" transform="translate(2.240610, 12.078775) scale(-1, 1) translate(-2.240610, -12.078775) " points="0.28563683 21.430287 0.709175375 1.9435859 3.59808754 1.9435859 4.1955836 21.430287 3.59808754 22.2139643 0.709175375 22.2139643"></polygon>
                                <g id="Group-54" transform="translate(0.958991, 2.421501)" fill="#9013FE">
                                    <rect id="Rectangle" x="1.14661912" y="0" width="1" height="17.5558848" rx="0.3"></rect>
                                    <path d="M0.549400037,0.00133480765 C0.644374608,0.00304711958 0.720022808,0.083959595 0.71836502,0.18205788 L0.428201708,17.3522481 C0.426543921,17.4503463 0.348207917,17.5284826 0.253233346,17.5267703 C0.158258776,17.525058 0.0826105759,17.4441455 0.0842683632,17.3460472 L0.374431675,0.17585705 C0.376089463,0.077758765 0.454425467,-0.000377504275 0.549400037,0.00133480765 Z" id="Rectangle"></path>
                                    <path d="M2.08782394,0.00310041501 C2.18279851,0.00138810308 2.26113451,0.0795243724 2.2627923,0.177622657 L2.55295561,17.3478128 C2.5546134,17.4459111 2.4789652,17.5268236 2.38399063,17.5285359 C2.28901606,17.5302482 2.21068005,17.452112 2.20902227,17.3540137 L1.91885895,0.183823487 C1.91720117,0.0857252024 1.99284937,0.00481272694 2.08782394,0.00310041501 Z" id="Rectangle"></path>
                                </g>
                                <rect id="Rectangle" fill="#9013FE" x="0" y="20.4616864" width="4.43533123" height="1"></rect>
                                <rect id="Rectangle" fill="#9013FE" x="0" y="0" width="4.43533123" height="1"></rect>
                                <rect id="Rectangle" fill="#4D00B4" x="0.359621451" y="1.08967561" width="3.71608833" height="1" rx="0.36"></rect>
                            </g>
                            <g id="COLUMN" transform="translate(64.132492, 7.264504)">
                                <polygon id="Path-22" fill="#4D00B4" transform="translate(2.240610, 12.078775) scale(-1, 1) translate(-2.240610, -12.078775) " points="0.28563683 21.430287 0.709175375 1.9435859 3.59808754 1.9435859 4.1955836 21.430287 3.59808754 22.2139643 0.709175375 22.2139643"></polygon>
                                <g id="Group-54" transform="translate(0.958991, 2.421501)" fill="#9013FE">
                                    <rect id="Rectangle" x="1.14661912" y="0" width="1" height="17.5558848" rx="0.3"></rect>
                                    <path d="M0.549400037,0.00133480765 C0.644374608,0.00304711958 0.720022808,0.083959595 0.71836502,0.18205788 L0.428201708,17.3522481 C0.426543921,17.4503463 0.348207917,17.5284826 0.253233346,17.5267703 C0.158258776,17.525058 0.0826105759,17.4441455 0.0842683632,17.3460472 L0.374431675,0.17585705 C0.376089463,0.077758765 0.454425467,-0.000377504275 0.549400037,0.00133480765 Z" id="Rectangle"></path>
                                    <path d="M2.08782394,0.00310041501 C2.18279851,0.00138810308 2.26113451,0.0795243724 2.2627923,0.177622657 L2.55295561,17.3478128 C2.5546134,17.4459111 2.4789652,17.5268236 2.38399063,17.5285359 C2.28901606,17.5302482 2.21068005,17.452112 2.20902227,17.3540137 L1.91885895,0.183823487 C1.91720117,0.0857252024 1.99284937,0.00481272694 2.08782394,0.00310041501 Z" id="Rectangle"></path>
                                </g>
                                <rect id="Rectangle" fill="#9013FE" x="0" y="20.4616864" width="4.43533123" height="1"></rect>
                                <rect id="Rectangle" fill="#9013FE" x="0" y="0" width="4.43533123" height="1"></rect>
                                <rect id="Rectangle" fill="#4D00B4" x="0.359621451" y="1.08967561" width="3.71608833" height="1" rx="0.36"></rect>
                            </g>
                            <rect id="Rectangle" fill="#4D00B4" x="7.19242902" y="2.30042628" width="1.07886435" height="2.78472655"></rect>
                            <rect id="Rectangle" fill="#4D00B4" x="67.488959" y="2.30042628" width="1.07886435" height="2.78472655"></rect>
                            <rect id="Rectangle" fill="#4D00B4" x="8.75078864" y="2.30042628" width="1" height="2.78472655"></rect>
                            <rect id="Rectangle" fill="#4D00B4" x="9.70977918" y="2.30042628" width="2.75709779" height="2.78472655"></rect>
                            <rect id="Rectangle" fill="#4D00B4" x="12.9463722" y="2.30042628" width="1" height="2.78472655"></rect>
                            <rect id="Rectangle" fill="#4D00B4" x="13.9053628" y="2.30042628" width="2.75709779" height="2.78472655"></rect>
                            <rect id="Rectangle" fill="#4D00B4" x="17.1419558" y="2.30042628" width="1" height="2.78472655"></rect>
                            <rect id="Rectangle" fill="#4D00B4" x="18.1009464" y="2.30042628" width="2.75709779" height="2.78472655"></rect>
                            <rect id="Rectangle" fill="#4D00B4" x="21.3375394" y="2.30042628" width="1" height="2.78472655"></rect>
                            <rect id="Rectangle" fill="#4D00B4" x="22.29653" y="2.30042628" width="2.75709779" height="2.78472655"></rect>
                            <rect id="Rectangle" fill="#4D00B4" x="25.533123" y="2.30042628" width="1" height="2.78472655"></rect>
                            <rect id="Rectangle" fill="#4D00B4" x="26.4921136" y="2.30042628" width="2.75709779" height="2.78472655"></rect>
                            <rect id="Rectangle" fill="#4D00B4" x="29.7287066" y="2.30042628" width="1" height="2.78472655"></rect>
                            <rect id="Rectangle" fill="#4D00B4" x="30.6876972" y="2.30042628" width="2.75709779" height="2.78472655"></rect>
                            <rect id="Rectangle" fill="#4D00B4" x="33.9242902" y="2.30042628" width="1" height="2.78472655"></rect>
                            <rect id="Rectangle" fill="#4D00B4" x="34.8832808" y="2.30042628" width="2.75709779" height="2.78472655"></rect>
                            <rect id="Rectangle" fill="#4D00B4" x="38.1198738" y="2.30042628" width="1" height="2.78472655"></rect>
                            <rect id="Rectangle" fill="#4D00B4" x="39.0788644" y="2.30042628" width="2.75709779" height="2.78472655"></rect>
                            <rect id="Rectangle" fill="#4D00B4" x="42.3154574" y="2.30042628" width="1" height="2.78472655"></rect>
                            <rect id="Rectangle" fill="#4D00B4" x="43.2744479" y="2.30042628" width="2.75709779" height="2.78472655"></rect>
                            <rect id="Rectangle" fill="#4D00B4" x="46.511041" y="2.30042628" width="1" height="2.78472655"></rect>
                            <rect id="Rectangle" fill="#4D00B4" x="47.4700315" y="2.30042628" width="2.75709779" height="2.78472655"></rect>
                            <rect id="Rectangle" fill="#4D00B4" x="50.7066246" y="2.30042628" width="1" height="2.78472655"></rect>
                            <rect id="Rectangle" fill="#4D00B4" x="51.6656151" y="2.30042628" width="2.75709779" height="2.78472655"></rect>
                            <rect id="Rectangle" fill="#4D00B4" x="54.9022082" y="2.30042628" width="1" height="2.78472655"></rect>
                            <rect id="Rectangle" fill="#4D00B4" x="55.8611987" y="2.30042628" width="2.75709779" height="2.78472655"></rect>
                            <rect id="Rectangle" fill="#4D00B4" x="59.0977918" y="2.30042628" width="1" height="2.78472655"></rect>
                            <rect id="Rectangle" fill="#4D00B4" x="60.0567823" y="2.30042628" width="2.75709779" height="2.78472655"></rect>
                            <rect id="Rectangle" fill="#4D00B4" x="63.2933754" y="2.30042628" width="1" height="2.78472655"></rect>
                            <rect id="Rectangle" fill="#4D00B4" x="64.2523659" y="2.30042628" width="2.75709779" height="2.78472655"></rect>
                        </g>
                    </g>
                    <path d="M12.5302589,327.677245 L163.554688,311.734375 L566.791798,318.80774 L622.70251,329 L638.555162,318.80774 L1052.32548,324.96931 L1073.37109,311.734375 L1178.48047,324.96931 L1220.63281,318.80774 C1255.3052,327.56022 1280.77915,332.746703 1297.05469,334.367188 C1303.87297,335.046055 1309.3527,335.126543 1313.49385,334.608651 L1313.49385,334.608639 C1318.12827,334.02906 1322.35506,337.316159 1322.93463,341.950579 C1322.97817,342.298692 1323,342.649176 1323,343 L1323,343 C1323,350.731986 1316.73199,357 1309,357 L14,357 C6.2680135,357 -8.29461588e-16,350.731986 -1.77635684e-15,343 L1.0658141e-14,341.599884 C1.29619449e-14,334.436861 5.40681755,328.42923 12.5302589,327.677245 Z" id="Rectangle" fill="#EAD6FE"></path>
                    <g id="Group-57" transform="translate(763.000000, 274.000000)">
                        <path d="M33.8516429,66.3877453 C31.1000752,67.429693 28.1166388,68 25,68 C11.1928813,68 0,56.8071187 0,43 C0,29.1928813 11.1928813,18 25,18 C27.5098413,18 29.9332989,18.3698523 32.2188443,19.0580282 C36.7445354,7.8827939 47.7017051,0 60.5,0 C77.0136127,0 90.4619939,13.1238161 90.9842545,29.5105591 C93.9117593,27.3064852 97.5533067,26 101.5,26 C111.164983,26 119,33.8350169 119,43.5 C119,44.7052229 118.878165,45.8819897 118.646139,47.018656 C121.311837,49.3110603 123,52.7083844 123,56.5 C123,63.4035594 117.403559,69 110.5,69 L41.5,69 C38.6189852,69 35.9656163,68.0253319 33.8516429,66.3877453 Z" id="Combined-Shape" fill="#9013FE"></path>
                        <circle id="Oval" fill="url(#linearGradient-2)" cx="26" cy="43" r="20"></circle>
                        <circle id="Oval" fill="url(#linearGradient-2)" cx="61.5" cy="34.5" r="28.5"></circle>
                        <circle id="Oval" fill="url(#linearGradient-2)" cx="104" cy="42" r="12"></circle>
                        <circle id="Oval" fill="url(#linearGradient-2)" cx="110.5" cy="56.5" r="8.5"></circle>
                    </g>
                    <g id="Group-57" transform="translate(378.500000, 312.500000) scale(-1, 1) translate(-378.500000, -312.500000) translate(337.000000, 289.000000)">
                        <path d="M22.8636456,45.2127225 C21.0011721,45.9274817 18.9808219,46.3188406 16.8699187,46.3188406 C7.55291987,46.3188406 0,38.6947041 0,29.2898551 C0,19.8850061 7.55291987,12.2608696 16.8699187,12.2608696 C18.5635514,12.2608696 20.1988927,12.5127979 21.7411714,12.9815554 C24.795093,5.36943933 32.1889555,0 40.8252033,0 C51.9685354,0 61.0434593,8.93941095 61.3958791,20.1013953 C63.3713498,18.6000696 65.8286541,17.7101449 68.4918699,17.7101449 C75.0137691,17.7101449 80.300813,23.0470405 80.300813,29.6304348 C80.300813,30.4585762 80.2171522,31.2669934 80.0578964,32.0475443 C81.8600372,33.6087561 83,35.9140054 83,38.4855072 C83,43.1879317 79.1879317,47 74.4855072,47 L28.0835984,47 C26.1165305,47 24.3052595,46.3329541 22.8636456,45.2127225 Z" id="Combined-Shape" fill="#9013FE"></path>
                        <circle id="Oval" fill="url(#linearGradient-2)" cx="17.5" cy="29.5" r="13.5"></circle>
                        <ellipse id="Oval" fill="url(#linearGradient-2)" cx="41" cy="23.5" rx="19" ry="19.5"></ellipse>
                        <circle id="Oval" fill="url(#linearGradient-2)" cx="70" cy="29" r="8"></circle>
                        <ellipse id="Oval" fill="url(#linearGradient-2)" cx="74.5" cy="38" rx="5.5" ry="6"></ellipse>
                    </g>
                    <g id="Group-57" transform="translate(967.500000, 148.500000) scale(-1, 1) rotate(-10.000000) translate(-967.500000, -148.500000) translate(951.000000, 139.000000)">
                        <path d="M9.10497916,18.271761 C8.3604365,18.5643392 7.55211603,18.7246377 6.70731707,18.7246377 C3.00296814,18.7246377 0,15.6425399 0,11.8405797 C0,8.03861948 3.00296814,4.95652174 6.70731707,4.95652174 C7.38068912,4.95652174 8.03088506,5.05836512 8.64408018,5.24786284 C9.85828997,2.17062441 12.7980184,0 16.2317073,0 C20.6621888,0 24.270291,3.61380442 24.4104097,8.12609597 C25.1958379,7.51917709 26.1728384,7.15942029 27.2317073,7.15942029 C29.8247516,7.15942029 31.9268293,9.31688871 31.9268293,11.9782609 C31.9268293,12.3181845 31.8925367,12.6498876 31.8273085,12.9699247 C32.5461865,13.6007803 33,14.5263788 33,15.557971 C33,17.4589511 31.4589511,19 29.557971,19 L11.2225168,19 C10.4239753,19 9.68894627,18.7280705 9.10497916,18.271761 Z" id="Combined-Shape" fill="#9013FE"></path>
                        <ellipse id="Oval" fill="url(#linearGradient-2)" cx="6.95783133" cy="11.9255319" rx="5.36746988" ry="5.45744681"></ellipse>
                        <ellipse id="Oval" fill="url(#linearGradient-2)" cx="16.3012048" cy="9.5" rx="7.55421687" ry="7.88297872"></ellipse>
                        <ellipse id="Oval" fill="url(#linearGradient-2)" cx="27.8313253" cy="11.7234043" rx="3.18072289" ry="3.23404255"></ellipse>
                        <ellipse id="Oval" fill="url(#linearGradient-2)" cx="29.6204819" cy="15.3617021" rx="2.18674699" ry="2.42553191"></ellipse>
                    </g>
                    <g id="Group-59" transform="translate(453.000000, 208.000000)">
                        <g id="Group-58" fill="#9013FE">
                            <ellipse id="Oval" cx="7.5" cy="57" rx="7.5" ry="57"></ellipse>
                            <ellipse id="Oval" cx="33.5" cy="79" rx="4.5" ry="35"></ellipse>
                        </g>
                        <rect id="Rectangle" fill="#4D00B4" x="6" y="113" width="3" height="11"></rect>
                        <rect id="Rectangle" fill="#4D00B4" x="33" y="113" width="1" height="11"></rect>
                    </g>
                    <g id="Group-59" transform="translate(969.000000, 274.000000) scale(-1, 1) translate(-969.000000, -274.000000) translate(950.000000, 212.000000)">
                        <g id="Group-58" fill="#9013FE">
                            <ellipse id="Oval" cx="7.5" cy="57" rx="7.5" ry="57"></ellipse>
                            <ellipse id="Oval" cx="33.5" cy="79" rx="4.5" ry="35"></ellipse>
                        </g>
                        <rect id="Rectangle" fill="#4D00B4" x="6" y="113" width="3" height="11"></rect>
                        <rect id="Rectangle" fill="#4D00B4" x="33" y="113" width="1" height="11"></rect>
                    </g>
                    <g id="Group-59" transform="translate(734.000000, 233.000000)">
                        <g id="Group-58" fill="#9013FE">
                            <ellipse id="Oval" cx="5.72368421" cy="44" rx="5.72368421" ry="44"></ellipse>
                            <ellipse id="Oval" cx="25.5657895" cy="60.9824561" rx="3.43421053" ry="27.0175439"></ellipse>
                        </g>
                        <rect id="Rectangle" fill="#4D00B4" x="5" y="87" width="2" height="9"></rect>
                        <rect id="Rectangle" fill="#4D00B4" x="25" y="87" width="1" height="9"></rect>
                    </g>
                    <g id="COLUMN" transform="translate(523.000000, 109.000000)">
                        <polygon id="Path-22" fill="#4D00B4" transform="translate(5.601526, 29.841680) scale(-1, 1) translate(-5.601526, -29.841680) " points="0.714092074 52.9454148 1.77293844 4.80180046 8.99521885 4.80180046 10.488959 52.9454148 8.99521885 54.8815587 1.77293844 54.8815587"></polygon>
                        <g id="Group-54" transform="translate(2.397476, 5.982533)" fill="#9013FE">
                            <rect id="Rectangle" x="2.8665478" y="0" width="1" height="43.3733624" rx="0.5"></rect>
                            <path d="M1.37350009,0.00329776009 C1.61093652,0.00752817779 1.80005702,0.207429588 1.79591255,0.449790056 L1.07050427,42.8702599 C1.0663598,43.1126204 0.870519793,43.3056629 0.633083366,43.3014325 C0.395646939,43.2972021 0.20652644,43.0973007 0.210670908,42.8549402 L0.936079188,0.434470358 C0.940223656,0.19210989 1.13606367,-0.000932657621 1.37350009,0.00329776009 Z" id="Rectangle"></path>
                            <path d="M5.21955984,0.00765984885 C5.45699627,0.00342943115 5.65283628,0.196471979 5.65698075,0.438832447 L6.38238903,42.8593023 C6.3865335,43.1016628 6.197413,43.3015642 5.95997657,43.3057946 C5.72254014,43.310025 5.52670013,43.1169825 5.52255567,42.874622 L4.79714739,0.454152145 C4.79300292,0.211791676 4.98212342,0.0118902666 5.21955984,0.00765984885 Z" id="Rectangle"></path>
                        </g>
                        <rect id="Rectangle" fill="#9013FE" x="0" y="50.5524017" width="11.0883281" height="2.3930131"></rect>
                        <rect id="Rectangle" fill="#9013FE" x="0" y="0" width="11.0883281" height="2.3930131"></rect>
                        <rect id="Rectangle" fill="#4D00B4" x="0.899053628" y="2.69213974" width="9.29022082" height="1.79475983" rx="0.897379913"></rect>
                    </g>
                    <g id="COLUMN" transform="translate(399.000000, 137.000000)">
                        <polygon id="Path-22" fill="#4D00B4" transform="translate(2.020693, 11.928148) scale(-1, 1) translate(-2.020693, -11.928148) " points="0.257601351 21.1630435 0.639569257 1.91934868 3.24493243 1.91934868 3.78378378 21.1630435 3.24493243 21.936948 0.639569257 21.936948"></polygon>
                        <g id="Group-54" transform="translate(0.864865, 2.391304)" fill="#9013FE">
                            <rect id="Rectangle" x="1.03407756" y="0" width="1" height="17.3369565" rx="0.3"></rect>
                            <path d="M0.495475994,0.00131816212 C0.581128736,0.00300912089 0.649352006,0.0829125883 0.647856932,0.179787552 L0.386173376,17.1358592 C0.384678301,17.2327342 0.314031038,17.3098961 0.228378295,17.3082051 C0.142725553,17.3065141 0.0745022832,17.2266107 0.0759973574,17.1297357 L0.337680913,0.173664048 C0.339175988,0.0767890849 0.409823251,-0.000372796659 0.495475994,0.00131816212 Z" id="Rectangle"></path>
                            <path d="M1.88290238,0.00306175171 C1.96855513,0.00137079293 2.03920239,0.0785326745 2.04069746,0.175407638 L2.30238102,17.1314793 C2.3038761,17.2283543 2.23565283,17.3082577 2.15000008,17.3099487 C2.06434734,17.3116396 1.99370008,17.2344778 1.992205,17.1376028 L1.73052145,0.181531141 C1.72902637,0.0846561779 1.79724964,0.00475271048 1.88290238,0.00306175171 Z" id="Rectangle"></path>
                        </g>
                        <rect id="Rectangle" fill="#9013FE" x="0" y="20.2065217" width="4" height="1"></rect>
                        <rect id="Rectangle" fill="#9013FE" x="0" y="0" width="4" height="1"></rect>
                        <rect id="Rectangle" fill="#4D00B4" x="0.324324324" y="1.07608696" width="3.35135135" height="1" rx="0.36"></rect>
                    </g>
                    <polygon id="Path-23" fill="#4D00B4" points="517 158.881559 395 158.881559 386.260163 168.380859"></polygon>
                    <polygon id="Path-27" fill="#9013FE" opacity="0.234165737" points="749 292 757.365931 152.432859 757.365931 280"></polygon>
                </g>
                <polygon id="Rectangle" fill="#EAD6FE" points="385 393 428 393 428 415 364.064453 415"></polygon>
                <polygon id="Rectangle" fill="#EAD6FE" transform="translate(1744.967773, 406.000000) scale(-1, 1) translate(-1744.967773, -406.000000) " points="1733.93555 397 1776.93555 397 1776.93555 415 1713 415"></polygon>
            </g>
            <path d="M839.975889,113.759661 C845.66054,112.07536 854.311198,111 864,111 C881.120827,111 895,114.357864 895,118.5 C895,122.642136 881.120827,126 864,126 C861.195963,126 858.478879,125.90993 855.89548,125.741096 C855.964512,125.990044 856,126.243284 856,126.5 C856,130.089851 849.060414,133 840.5,133 C835.21904,133 830.554921,131.89248 827.756361,130.201097 C816.286208,136.750665 797.82285,141 777,141 C757.973082,141 740.916205,137.45205 729.364567,131.843178 C724.590139,132.583442 719.202064,133 713.5,133 C693.893891,133 678,128.075132 678,122 C678,115.924868 693.893891,111 713.5,111 C713.848916,111 714.196656,111.00156 714.543152,111.004658 C718.610273,98.0211401 745.022958,88 777,88 C811.205335,88 839.043799,99.466431 839.975889,113.759661 Z" id="Combined-Shape" fill="#FFFFFF"></path>
            <path d="M1796.97589,87.7596608 C1802.66054,86.0753598 1811.3112,85 1821,85 C1838.12083,85 1852,88.3578644 1852,92.5 C1852,96.6421356 1838.12083,100 1821,100 C1818.19596,100 1815.47888,99.9099298 1812.89548,99.7410956 C1812.96451,99.990044 1813,100.243284 1813,100.5 C1813,104.089851 1806.06041,107 1797.5,107 C1792.21904,107 1787.55492,105.89248 1784.75636,104.201097 C1773.28621,110.750665 1754.82285,115 1734,115 C1714.97308,115 1697.9162,111.45205 1686.36457,105.843178 C1681.59014,106.583442 1676.20206,107 1670.5,107 C1650.89389,107 1635,102.075132 1635,96 C1635,89.9248678 1650.89389,85 1670.5,85 C1670.84892,85 1671.19666,85.0015597 1671.54315,85.004658 C1675.61027,72.0211401 1702.02296,62 1734,62 C1768.20534,62 1796.0438,73.466431 1796.97589,87.7596608 Z" id="Combined-Shape" fill="#FFFFFF" transform="translate(1743.500000, 88.500000) scale(-1, 1) translate(-1743.500000, -88.500000) "></path>
            <path d="M568.998156,194.354698 C571.929979,193.523975 576.220228,193 581,193 C589.836556,193 597,194.790861 597,197 C597,199.209139 589.836556,201 581,201 C579.60279,201 578.24741,200.955227 576.955563,200.871106 C576.53195,202.62964 573.131763,204 569,204 C566.35437,204 564.00869,203.438148 562.552339,202.572298 C556.626145,205.867056 547.162729,208 536.5,208 C526.738776,208 517.98264,206.212478 512.025233,203.382485 C509.473989,203.777019 506.574584,204 503.5,204 C493.282732,204 485,201.537566 485,198.5 C485,195.462434 493.282732,193 503.5,193 C503.73348,193 503.96595,193.001286 504.197335,193.003835 C505.989463,186.252063 519.768166,181 536.5,181 C554.332509,181 568.810575,186.965787 568.998156,194.354698 Z" id="Combined-Shape" fill="#FFFFFF" transform="translate(541.000000, 194.500000) scale(-1, 1) translate(-541.000000, -194.500000) "></path>
            <path d="M356.993657,96.7161978 C358.797956,96.2732193 361.27135,96 364,96 C369.522847,96 374,97.1192881 374,98.5 C374,99.8807119 369.522847,101 364,101 C363.116522,101 362.259803,100.971358 361.44389,100.917585 C360.612461,101.560542 358.934532,102 357,102 C355.575239,102 354.289662,101.761631 353.378926,101.379154 C349.760973,103.568827 343.773743,105 337,105 C331.40108,105 326.339511,104.022215 322.709096,102.446513 C320.918164,102.796812 318.787048,103 316.5,103 C310.148725,103 305,101.432997 305,99.5 C305,97.5670034 310.148725,96 316.5,96 C316.678824,96 316.856695,96.0012422 317.033525,96.0036999 C317.638177,91.5402665 326.346296,88 337,88 C348.045695,88 357,91.8055796 357,96.5 C357,96.5722802 356.997877,96.6443497 356.993657,96.7161978 Z" id="Combined-Shape" fill="#FFFFFF" transform="translate(339.500000, 96.500000) scale(-1, 1) translate(-339.500000, -96.500000) "></path>
            <path d="M1986.99366,172.716198 C1988.79796,172.273219 1991.27135,172 1994,172 C1999.52285,172 2004,173.119288 2004,174.5 C2004,175.880712 1999.52285,177 1994,177 C1993.11652,177 1992.2598,176.971358 1991.44389,176.917585 C1990.61246,177.560542 1988.93453,178 1987,178 C1985.57524,178 1984.28966,177.761631 1983.37893,177.379154 C1979.76097,179.568827 1973.77374,181 1967,181 C1961.40108,181 1956.33951,180.022215 1952.7091,178.446513 C1950.91816,178.796812 1948.78705,179 1946.5,179 C1940.14873,179 1935,177.432997 1935,175.5 C1935,173.567003 1940.14873,172 1946.5,172 C1946.67882,172 1946.8567,172.001242 1947.03352,172.0037 C1947.63818,167.540267 1956.3463,164 1967,164 C1978.04569,164 1987,167.80558 1987,172.5 C1987,172.57228 1986.99788,172.64435 1986.99366,172.716198 Z" id="Combined-Shape" fill="#FFFFFF" transform="translate(1969.500000, 172.500000) scale(-1, 1) translate(-1969.500000, -172.500000) "></path>
        </g>
    </g>
</svg>