<svg width="116" height="99" viewBox="0 0 116 99" fill="none" xmlns="http://www.w3.org/2000/svg">
<path d="M71.4109 70.1805H74.6412L113.745 36.8244L92.4669 4.07031L80.0949 19.8389L92.2315 37.1254L71.4109 70.1805Z" fill="#BCC0D6"/>
<path d="M21.9359 37.1254L33.9941 19.8389L21.7005 4.07031L0.422119 36.8244L39.4477 70.1805H42.7565L21.9359 37.1254Z" fill="#BCC0D6"/>
<path d="M57.038 0L29.9268 37.1248L48.3671 70.1799H57.038H65.8005L84.2409 37.1248L57.038 0Z" fill="#9598AD"/>
<path d="M11.689 96.3667V98.3686H0V82.2617H11.3668V84.2636H2.30098V89.2107H10.3774V91.1665H2.30098V96.3667H11.689Z" fill="#181B24"/>
<path d="M18.6131 84.2636H13.0908V82.2617H26.4135V84.2636H20.8911V98.3686H18.6131V84.2636Z" fill="#181B24"/>
<path d="M42.7715 82.2617V98.3686H40.4705V91.1895H31.2205V98.3686H28.9196V82.2617H31.2205V89.1877H40.4705V82.2617H42.7715Z" fill="#181B24"/>
<path d="M49.8935 84.2636V89.878H57.97V91.8568H49.8935V98.3686H47.5926V82.2617H58.9594V84.2636H49.8935Z" fill="#181B24"/>
<path d="M62.1984 82.2617H64.4994V98.3686H62.1984V82.2617Z" fill="#181B24"/>
<path d="M83.1735 82.2617V98.3686H81.2867L71.6225 86.3575V98.3686H69.3215V82.2617H71.2084L80.8725 94.2728V82.2617H83.1735Z" fill="#181B24"/>
<path d="M99.6835 96.3667V98.3686H87.9945V82.2617H99.3614V84.2636H90.2955V89.2107H98.372V91.1665H90.2955V96.3667H99.6835Z" fill="#181B24"/>
<path d="M113.354 98.3686L108.522 91.7188L103.759 98.3686H101.113L107.164 90.1081L101.481 82.2617H104.104L108.614 88.4514L113.078 82.2617H115.586L109.902 90.039L116 98.3686H113.354Z" fill="#181B24"/>
</svg>
