<svg width="423" height="423" viewBox="0 0 423 423" fill="none" xmlns="http://www.w3.org/2000/svg">
<circle cx="211.5" cy="211.5" r="211.5" fill="url(#paint0_linear)"/>
<circle cx="211" cy="212" r="187" fill="url(#paint1_linear)"/>
<circle cx="211" cy="212" r="137" stroke="url(#paint2_linear)" stroke-width="10"/>
<path d="M194.721 246.844C194.721 236.535 196 228.319 198.558 222.196C201.116 216.073 206.155 209.369 213.674 202.083C221.271 194.719 226.078 189.487 228.093 186.387C231.194 181.659 232.744 176.543 232.744 171.04C232.744 163.754 230.922 158.213 227.279 154.415C223.713 150.539 218.442 148.601 211.465 148.601C204.798 148.601 199.411 150.5 195.302 154.298C191.271 158.019 189.256 163.096 189.256 169.529H161C161.155 155.81 165.806 144.959 174.953 136.975C184.178 128.992 196.349 125 211.465 125C227.047 125 239.178 128.953 247.86 136.859C256.62 144.765 261 155.81 261 169.994C261 182.628 255.109 195.068 243.326 207.315L229.023 221.382C223.907 227.196 221.271 235.683 221.116 246.844H194.721ZM192.744 283.002C192.744 278.429 194.178 274.747 197.047 271.957C199.915 269.089 203.791 267.655 208.674 267.655C213.636 267.655 217.55 269.128 220.419 272.073C223.287 274.941 224.721 278.584 224.721 283.002C224.721 287.265 223.326 290.83 220.535 293.698C217.744 296.566 213.791 298 208.674 298C203.558 298 199.605 296.566 196.814 293.698C194.101 290.83 192.744 287.265 192.744 283.002Z" fill="#9F9F9F"/>
<defs>
<linearGradient id="paint0_linear" x1="211.5" y1="0" x2="211.5" y2="423" gradientUnits="userSpaceOnUse">
<stop stop-color="#E8E8E8"/>
<stop offset="0.98895" stop-color="#E8E8E8"/>
</linearGradient>
<linearGradient id="paint1_linear" x1="211" y1="25" x2="211" y2="399" gradientUnits="userSpaceOnUse">
<stop stop-color="#F9F9F9"/>
<stop offset="1" stop-color="#C8C8C8"/>
</linearGradient>
<linearGradient id="paint2_linear" x1="211" y1="70" x2="211" y2="354" gradientUnits="userSpaceOnUse">
<stop stop-color="#C9C9C9"/>
<stop offset="1" stop-color="#F9F9F9"/>
</linearGradient>
</defs>
</svg>
